<?xml version="1.0" encoding="UTF-8" standalone="no"?>
<!-- Created with Inkscape (http://www.inkscape.org/) -->

<svg
   width="500"
   height="500"
   viewBox="0 0 132.29166 132.29167"
   version="1.1"
   id="svg1"
   inkscape:version="1.3.2 (091e20e, 2023-11-25, custom)"
   sodipodi:docname="imdamian.svg"
   inkscape:export-filename="imdamian1.svg"
   inkscape:export-xdpi="96"
   inkscape:export-ydpi="96"
   xmlns:inkscape="http://www.inkscape.org/namespaces/inkscape"
   xmlns:sodipodi="http://sodipodi.sourceforge.net/DTD/sodipodi-0.dtd"
   xmlns="http://www.w3.org/2000/svg"
   xmlns:svg="http://www.w3.org/2000/svg">
  <style
     id="style1">#eyebrows {  }
</style>
  <sodipodi:namedview
     id="namedview1"
     pagecolor="#ffffff"
     bordercolor="#999999"
     borderopacity="1"
     inkscape:showpageshadow="2"
     inkscape:pageopacity="0"
     inkscape:pagecheckerboard="0"
     inkscape:deskcolor="#d1d1d1"
     inkscape:document-units="mm"
     inkscape:zoom="1.4218013"
     inkscape:cx="216.27495"
     inkscape:cy="253.90327"
     inkscape:window-width="1920"
     inkscape:window-height="1002"
     inkscape:window-x="-8"
     inkscape:window-y="1069"
     inkscape:window-maximized="1"
     inkscape:current-layer="layer1"
     showgrid="true">
    <inkscape:grid
       id="grid1"
       units="mm"
       originx="0"
       originy="0"
       spacingx="0.99999995"
       spacingy="1"
       empcolor="#0099e5"
       empopacity="0.30196078"
       color="#0099e5"
       opacity="0.14901961"
       empspacing="5"
       dotted="false"
       gridanglex="30"
       gridanglez="30"
       visible="true" />
  </sodipodi:namedview>
  <defs
     id="defs1">
    <inkscape:path-effect
       effect="bspline"
       id="path-effect263593-3-7-3-0"
       is_visible="true"
       lpeversion="1.3"
       weight="33.333333"
       steps="2"
       helper_size="0"
       apply_no_weight="true"
       apply_with_weight="true"
       only_selected="false"
       uniform="false" />
    <inkscape:path-effect
       effect="skeletal"
       id="path-effect263594-9-8-72-1"
       is_visible="true"
       lpeversion="1"
       pattern="M 0,18.867925 C 0,8.4528302 8.4528302,0 18.867925,0 c 10.415094,0 18.867924,8.4528302 18.867924,18.867925 0,10.415094 -8.45283,18.867924 -18.867924,18.867924 C 8.4528302,37.735849 0,29.283019 0,18.867925 Z"
       copytype="single_stretched"
       prop_scale="0.20892152"
       scale_y_rel="false"
       spacing="0"
       normal_offset="0"
       tang_offset="0"
       prop_units="false"
       vertical_pattern="false"
       hide_knot="false"
       fuse_tolerance="0" />
    <inkscape:path-effect
       effect="bspline"
       id="path-effect263593-3-3-2-1-7"
       is_visible="true"
       lpeversion="1.3"
       weight="33.333333"
       steps="2"
       helper_size="0"
       apply_no_weight="true"
       apply_with_weight="true"
       only_selected="false"
       uniform="false" />
    <inkscape:path-effect
       effect="skeletal"
       id="path-effect263594-9-7-1-9-2"
       is_visible="true"
       lpeversion="1"
       pattern="M 0,18.867925 C 0,8.4528302 8.4528302,0 18.867925,0 c 10.415094,0 18.867924,8.4528302 18.867924,18.867925 0,10.415094 -8.45283,18.867924 -18.867924,18.867924 C 8.4528302,37.735849 0,29.283019 0,18.867925 Z"
       copytype="single_stretched"
       prop_scale="0.21897455"
       scale_y_rel="false"
       spacing="0"
       normal_offset="0"
       tang_offset="0"
       prop_units="false"
       vertical_pattern="false"
       hide_knot="false"
       fuse_tolerance="0" />
    <inkscape:path-effect
       effect="skeletal"
       id="path-effect263597-6-3-2-9"
       is_visible="true"
       lpeversion="1"
       pattern="M 0,18.867925 C 0,8.4528302 8.4528302,0 18.867925,0 c 10.415094,0 18.867924,8.4528302 18.867924,18.867925 0,10.415094 -8.45283,18.867924 -18.867924,18.867924 C 8.4528302,37.735849 0,29.283019 0,18.867925 Z"
       copytype="single_stretched"
       prop_scale="0.08"
       scale_y_rel="false"
       spacing="0"
       normal_offset="0"
       tang_offset="0"
       prop_units="false"
       vertical_pattern="false"
       hide_knot="false"
       fuse_tolerance="0" />
    <inkscape:path-effect
       effect="skeletal"
       id="path-effect263601-0-0-0"
       is_visible="true"
       lpeversion="1"
       pattern="M 0,18.867925 C 0,8.4528302 8.4528302,0 18.867925,0 c 10.415094,0 18.867924,8.4528302 18.867924,18.867925 0,10.415094 -8.45283,18.867924 -18.867924,18.867924 C 8.4528302,37.735849 0,29.283019 0,18.867925 Z"
       copytype="single_stretched"
       prop_scale="0.08"
       scale_y_rel="false"
       spacing="0"
       normal_offset="0"
       tang_offset="0"
       prop_units="false"
       vertical_pattern="false"
       hide_knot="false"
       fuse_tolerance="0" />
    <inkscape:path-effect
       effect="skeletal"
       id="path-effect263602-8-26-6"
       is_visible="true"
       lpeversion="1"
       pattern="M 0,18.867925 C 0,8.4528302 8.4528302,0 18.867925,0 c 10.415094,0 18.867924,8.4528302 18.867924,18.867925 0,10.415094 -8.45283,18.867924 -18.867924,18.867924 C 8.4528302,37.735849 0,29.283019 0,18.867925 Z"
       copytype="single_stretched"
       prop_scale="0.08"
       scale_y_rel="false"
       spacing="0"
       normal_offset="0"
       tang_offset="0"
       prop_units="false"
       vertical_pattern="false"
       hide_knot="false"
       fuse_tolerance="0" />
    <inkscape:path-effect
       effect="skeletal"
       id="path-effect263605-5"
       is_visible="true"
       lpeversion="1"
       pattern="M 0,18.867925 C 0,8.4528302 8.4528302,0 18.867925,0 c 10.415094,0 18.867924,8.4528302 18.867924,18.867925 0,10.415094 -8.45283,18.867924 -18.867924,18.867924 C 8.4528302,37.735849 0,29.283019 0,18.867925 Z"
       copytype="single_stretched"
       prop_scale="0.05"
       scale_y_rel="false"
       spacing="0"
       normal_offset="0"
       tang_offset="0"
       prop_units="false"
       vertical_pattern="false"
       hide_knot="false"
       fuse_tolerance="0" />
    <inkscape:path-effect
       effect="skeletal"
       id="path-effect263606-0"
       is_visible="true"
       lpeversion="1"
       pattern="M 0,18.867925 C 0,8.4528302 8.4528302,0 18.867925,0 c 10.415094,0 18.867924,8.4528302 18.867924,18.867925 0,10.415094 -8.45283,18.867924 -18.867924,18.867924 C 8.4528302,37.735849 0,29.283019 0,18.867925 Z"
       copytype="single_stretched"
       prop_scale="0.05"
       scale_y_rel="false"
       spacing="0"
       normal_offset="0"
       tang_offset="0"
       prop_units="false"
       vertical_pattern="false"
       hide_knot="false"
       fuse_tolerance="0" />
    <inkscape:path-effect
       effect="skeletal"
       id="path-effect263607-7"
       is_visible="true"
       lpeversion="1"
       pattern="M 0,18.867925 C 0,8.4528302 8.4528302,0 18.867925,0 c 10.415094,0 18.867924,8.4528302 18.867924,18.867925 0,10.415094 -8.45283,18.867924 -18.867924,18.867924 C 8.4528302,37.735849 0,29.283019 0,18.867925 Z"
       copytype="single_stretched"
       prop_scale="0.05"
       scale_y_rel="false"
       spacing="0"
       normal_offset="0"
       tang_offset="0"
       prop_units="false"
       vertical_pattern="false"
       hide_knot="false"
       fuse_tolerance="0" />
    <inkscape:path-effect
       effect="skeletal"
       id="path-effect263608-84"
       is_visible="true"
       lpeversion="1"
       pattern="M 0,18.867925 C 0,8.4528302 8.4528302,0 18.867925,0 c 10.415094,0 18.867924,8.4528302 18.867924,18.867925 0,10.415094 -8.45283,18.867924 -18.867924,18.867924 C 8.4528302,37.735849 0,29.283019 0,18.867925 Z"
       copytype="single_stretched"
       prop_scale="0.05"
       scale_y_rel="false"
       spacing="0"
       normal_offset="0"
       tang_offset="0"
       prop_units="false"
       vertical_pattern="false"
       hide_knot="false"
       fuse_tolerance="0" />
    <inkscape:path-effect
       effect="skeletal"
       id="path-effect263608-8-6"
       is_visible="true"
       lpeversion="1"
       pattern="M 0,18.867925 C 0,8.4528302 8.4528302,0 18.867925,0 c 10.415094,0 18.867924,8.4528302 18.867924,18.867925 0,10.415094 -8.45283,18.867924 -18.867924,18.867924 C 8.4528302,37.735849 0,29.283019 0,18.867925 Z"
       copytype="single_stretched"
       prop_scale="0.05"
       scale_y_rel="false"
       spacing="0"
       normal_offset="0"
       tang_offset="0"
       prop_units="false"
       vertical_pattern="false"
       hide_knot="false"
       fuse_tolerance="0" />
    <clipPath
       clipPathUnits="userSpaceOnUse"
       id="clipPath263470-6-7-6-5-4">
      <path
         id="path263471-9-7-41-9-4"
         style="fill:#ff0000;fill-opacity:1;fill-rule:nonzero;stroke:none"
         d="m 813.99807,1171 v 493.7188 H 1172.375 c 0.016,-2.4465 -0.02,-4.8935 0.01,-7.3399 0.1072,-9.3181 0.4104,-18.6343 0.6152,-27.9511 2.1032,-48.5901 7.6443,-97.0254 15.3907,-145.0293 1.3466,-8.3447 2.8972,-16.6548 4.3457,-24.9825 3.592,-19.2384 7.589,-38.4234 12.5195,-57.3691 2.0264,-7.7866 4.4768,-16.7005 7.5547,-24.2266 1.2634,-3.0894 2.8847,-6.0207 4.3261,-9.0312 4.826,-6.4364 6.1149,-9.5657 13.4434,-13.5977 10.1709,-5.5959 22.9946,-6.4811 35.0703,-6.4531 4.0252,0.01 7.9658,0.1216 11.6992,0.1934 11.6642,2.0633 14.9717,1.6091 25.67,8.0566 3.2506,1.959 6.3064,4.2769 9.2734,6.7227 1.1921,-0.2613 2.4391,-0.4536 3.8027,-0.4942 3.8344,-0.1141 5.9288,4.8713 8.8926,7.3067 0.3016,1.066 0.6519,2.1209 0.9844,3.1797 V 1171 Z m 453.89263,191.8672 c -9.8719,-0.1267 -21.2874,0.261 -28.9844,3.7539 -4.952,2.2474 -5.6505,4.1556 -9.0449,8.3301 -1.2388,2.5244 -2.6414,4.9752 -3.7149,7.5742 -2.9396,7.1171 -5.2378,15.5254 -7.1543,22.8828 -4.8545,18.6361 -8.7906,37.5067 -12.3262,56.4317 -1.4308,8.218 -2.9632,16.4193 -4.2929,24.6543 -7.6555,47.4136 -13.141,95.2535 -15.2364,143.2461 -0.2036,9.2129 -0.5053,18.4244 -0.6113,27.6386 -0.028,2.4465 -0.013,4.8932 -0.031,7.3399 h 95.373 c -5.8746,-2.655 -4.1676,-5.1804 -3.4023,-13.5195 1.4995,-10.8483 3.1851,-21.6687 5.0898,-32.4532 0.2428,-1.3746 2.2123,-13.2155 3.3086,-15.6699 0.7673,-1.7179 2.1861,-3.0624 3.2793,-4.5937 0.8749,0.4802 1.8087,0.8867 2.7441,1.291 0.6551,-3.0503 1.2972,-6.1029 1.9375,-9.1563 -3.6485,0.686 -7.8877,-0.8418 -11.7207,-0.8418 -0.9549,-2.3956 -2.3203,-4.6665 -2.8632,-7.1875 -1.7365,-8.0643 -1.9262,-23.8157 -2.2461,-31.1445 -0.9016,-20.6527 -1.883,-41.3052 -3.3946,-61.9238 -0.4415,-5.3269 -0.6894,-8.3897 -0.9707,-11.8028 -1.9611,-1.0059 -4.2563,-2.88 -6.9863,-5.9257 -1.115,-1.2439 0.1216,-18.5331 0.1856,-19.7188 0.6983,-7.6519 0.18,-21.3534 11.0605,-13.8066 2.7196,-10.6882 5.4417,-21.419 8.7266,-31.9258 2.0038,-6.4092 3.9745,-12.8473 6.5312,-19.0567 2.025,-4.9179 4.1187,-10.5575 7.3223,-15.1562 -4.0588,-2.9822 -8.4136,-5.4737 -13.1485,-7.0703 -3.3027,-1.1138 -6.8454,-1.3242 -10.2675,-1.9864 -2.7519,-0.061 -5.869,-0.1607 -9.1582,-0.2031 z m 43.2343,18.7637 c -0.9463,4.116 -3.6722,7.6749 -5.1699,11.6445 -2.1883,5.8004 -4.1202,11.6982 -5.9512,17.6211 -3.8788,12.547 -6.7717,24.4485 -10.0254,37.1445 -1.2054,4.6749 -2.3518,9.3666 -3.6171,14.0254 0.9605,8.763 1.5108,16.4071 2.332,26.2832 0.6296,8.57 1.1243,17.1474 1.6035,25.7266 1.3724,-3.6899 4.1797,-10.804 5.6426,-12.8476 1.8416,-2.5728 4.4299,-4.5214 6.6445,-6.7813 3.5282,0.6987 7.4294,0.3701 10.584,2.0977 1.4396,0.7884 2.6217,3.7871 3.5117,6.7539 -0.06,-11.1888 -0.158,-22.377 -0.1582,-33.5664 -5.6878,0.7031 -9.5789,-5.7729 -3.7383,-13.6543 0.8835,-1.1923 2.3046,-3.141 3.7227,-5.0176 0,-8.805 0.014,-17.6101 -0.01,-26.4141 0.1908,-3.666 0.1665,-8.5445 1.3379,-12.7656 -0.5852,-8.8585 -1.3955,-17.7122 -2.6933,-24.9082 -0.09,-0.5011 -0.2298,-0.9909 -0.3438,-1.4863 -1.1982,-1.3108 -2.414,-2.5697 -3.6719,-3.8555 z m -5.875,146.793 c -3.4535,3.7447 -3.5244,4.4547 -13.2304,5.7754 -0.2231,-0.3485 -0.4927,-0.6743 -0.7344,-1.0137 0.2796,5.871 0.5795,11.7414 0.8359,17.6133 0.1649,3.7742 0.2751,9.2338 0.5586,14.7832 0.4474,-1.2581 0.8861,-2.5187 1.3203,-3.7813 0.9302,-2.7045 4.5644,-14.2126 6.4688,-17.6797 0.8294,-1.51 2.155,-2.687 3.2324,-4.0312 1.939,1.2434 4.1943,2.1685 6.3281,3.2168 -0.6634,-2.4919 -1.2058,-5.0055 -1.6816,-7.5332 -0.631,-0.8614 -1.2264,-1.8402 -1.8223,-2.9805 -0.5211,-0.9971 -0.5811,-2.1745 -0.8984,-3.2539 -0.2295,-0.7804 -0.2474,-0.7511 -0.377,-1.1152 z m 13.5489,61.4961 c -1.7425,8.5566 -6.1507,30.1298 -8.9493,38.2851 -1.3936,4.0613 -3.6084,7.7929 -5.4121,11.6895 -1.8178,-0.392 -3.7222,-0.5597 -5.6093,-0.7754 -0.2756,1.2493 -0.5315,2.5028 -0.8165,3.75 -0.3359,1.4701 -4.1875,17.8236 -5.4218,21.3769 -0.043,0.125 -0.082,0.3241 -0.1211,0.4727 h 28.7539 c 0.2436,-11.5584 0.4591,-18.3706 0.7187,-37.8223 -1.6665,-12.3782 -2.314,-23.5003 -3.1425,-36.9765 z m -39.7657,70.2812 c -0.093,0.01 -0.1482,5e-4 -0.2422,0.01 -0.1163,0.01 0.1223,0.4219 0.1563,0.3105 0.032,-0.1045 0.054,-0.2118 0.086,-0.3164 z" />
    </clipPath>
  </defs>
  <g
     inkscape:label="Capa 1"
     inkscape:groupmode="layer"
     id="layer1">
    <path
       id="face"
       style="fill:#ab7856;fill-opacity:1;stroke-width:0.280512"
       d="m 67.314905,28.136669 c -1.257782,0.01685 -2.711882,0.156312 -4.507908,0.42022 -6.65748,0.97824 -11.567587,3.508255 -16.659233,8.584105 -2.324567,2.317342 -7.751738,3.094841 -7.853196,5.888561 l -1.148342,1.965776 c -0.521776,4.300255 -0.133914,9.479512 0.08598,11.516332 -1.157372,-1.262816 -3.286222,-2.856252 -3.566656,-1.504465 -0.771839,3.72069 -0.624969,13.849333 0.21696,14.953153 2.291916,3.004869 3.707228,4.154219 4.872784,3.9573 l 1.115465,-0.188469 0.340226,1.349965 c 0.841618,3.342465 2.999563,7.750031 5.190544,10.600833 l 0.856871,1.114377 -0.06902,6.59971 c -0.03795,3.629784 -0.144431,7.643263 -0.236139,8.918873 l -0.167098,2.3197 -1.342833,1.27162 c -0.738789,0.69948 -1.567164,1.43514 -1.840301,1.63487 -1.05937,0.77461 5.785671,6.89675 10.19921,9.12211 2.345137,1.18243 7.24145,2.80764 9.866131,3.2752 7.580948,1.35044 17.370119,-2.15399 23.701078,-8.48494 2.771773,-2.77176 3.774354,-4.07599 3.264237,-4.24603 -0.210408,-0.0702 -0.856315,-0.63051 -1.43543,-1.24532 l -1.053014,-1.11767 -0.174223,-3.96716 c -0.09595,-2.181942 -0.201068,-6.134902 -0.233404,-8.784655 l -0.05916,-4.818013 1.850721,-2.77937 c 2.655247,-3.988037 3.066637,-5.502334 4.431214,-9.815728 l 0.478851,-1.514326 1.074377,0.173128 c 1.16581,-0.138978 1.143005,-0.167052 1.788266,-0.696897 0.39148,-0.321456 1.519602,-1.330894 2.251766,-2.34107 1.461791,-2.01686 1.350844,-2.107478 1.344484,-5.840895 -0.10591,-9.944747 0.129607,-11.367331 -2.255048,-10.197598 -0.21874,0.107297 -0.545414,0.432107 -0.882633,0.791132 -0.0176,-0.503121 -0.110738,-1.125044 -0.03234,-1.675401 0.09245,-0.644137 0.06489,-7.991328 -0.473359,-9.049799 -1.098508,-2.160146 -2.243845,-1.735045 -5.199341,-4.593932 -2.05867,-1.991367 -5.046364,-4.032968 -9.59438,-6.556969 -4.366,-2.422986 -8.392851,-4.181949 -10.814503,-4.72323 -1.012441,-0.2263 -2.073852,-0.331871 -3.331634,-0.315028 z" />
    <g
       id="eyebrows">
      <path
         style="fill:#000000;opacity:0.99;fill-opacity:1;stroke:none;stroke-width:0.377953;stroke-dasharray:none"
         d="m 2983.3751,552.75001 c -0.5116,1.65234 -10.9746,-0.28491 -25.0617,-3.5723 0,0 0,0 0,0 -3.4876,-0.81024 -7.6767,-1.82382 -11.505,-2.6419 -3.0716,-0.65637 -5.9539,-1.20021 -8.7874,-1.62091 -5.5333,-0.82659 -10.2821,-0.98172 -14.4969,-0.79891 -7.2196,0.28847 -12.2076,1.00984 -12.524,-0.11598 -0.3165,-1.12582 3.8047,-3.83403 11.6893,-5.70969 4.5551,-1.06962 10.0519,-1.54765 16.2479,-0.95518 3.1059,0.29771 6.2675,0.8016 9.5127,1.49014 4.2082,0.89287 8.2265,2.02704 11.8253,3.15328 0,0 0,0 0,0 14.1087,4.39627 23.6114,9.11911 23.0998,10.77145 z"
         id="path263592-2-1-0-3"
         inkscape:path-effect="#path-effect263593-3-7-3-0;#path-effect263594-9-8-72-1"
         inkscape:original-d="m 2983.3751,552.75001 c -16.4166,-5.08331 -32.8334,-10.16668 -49.25,-15.25 -7.7085,2.16671 -15.4167,4.33333 -23.125,6.5"
         sodipodi:nodetypes="ccc"
         transform="matrix(0.28051199,0,0,0.28051199,-773.9003,-111.56497)" />
      <path
         style="fill:#000000;opacity:0.99;fill-opacity:1;stroke:none;stroke-width:0.377953;stroke-dasharray:none"
         d="m 2983.3751,552.75001 c -0.5363,1.73185 -11.0223,-0.13838 -25.1089,-3.39909 0,0 0,0 0,0 -3.4688,-0.79919 -7.6943,-1.81677 -11.4973,-2.6296 -3.0677,-0.65566 -5.9427,-1.20034 -8.77,-1.62405 -5.5181,-0.8324 -10.2473,-1.00241 -14.4547,-0.84111 -7.2036,0.25027 -12.2124,0.92384 -12.5441,-0.25615 -0.3317,-1.17999 3.7686,-3.936 11.6693,-5.84985 4.5636,-1.09087 10.0776,-1.58431 16.29,-0.99738 3.1125,0.29478 6.2806,0.79764 9.5301,1.48699 4.2147,0.89411 8.2342,2.03231 11.833,3.16559 0,0 0,0 0,0 14.1092,4.42294 23.5889,9.2128 23.0526,10.94465 z"
         id="path263592-2-5-8-3-8"
         inkscape:path-effect="#path-effect263593-3-3-2-1-7;#path-effect263594-9-7-1-9-2"
         inkscape:original-d="m 2983.3751,552.75001 c -16.4166,-5.08331 -32.8334,-10.16668 -49.25,-15.25 -7.7085,2.16671 -15.4167,4.33333 -23.125,6.5"
         sodipodi:nodetypes="ccc"
         transform="matrix(-0.28051199,0,0,0.28051199,906.89303,-111.62908)" />
    </g>
    <g
       id="facial_features"
       transform="matrix(1.0602028,0,0,1.0602028,-58.768092,-13.865088)"
       style="fill:#000000">
      <path
         style="opacity:0.99;fill:#000000;fill-opacity:1;stroke:none;stroke-width:0.377953;stroke-dasharray:none"
         d="m 1155.25,769.50002 c 0.8388,0.0766 0.073,15.6029 -1.6795,34.56679 -0.9325,10.08783 -1.9637,19.22783 -2.8377,25.56058 1.5837,5.16781 2.3872,8.49207 2.0172,8.62265 -0.3709,0.13092 -1.8379,-2.98376 -3.9828,-8.37739 0.2796,-6.30452 0.9231,-15.51045 1.8428,-25.71284 1.7352,-19.24919 3.8013,-34.73635 4.64,-34.65979 z"
         id="path263596-9-0-8-0"
         inkscape:path-effect="#path-effect263597-6-3-2-9"
         inkscape:original-d="m 1155.25,769.50002 -5.5,60.25 3,8.5"
         sodipodi:nodetypes="ccc"
         transform="matrix(0.26458333,0,0,0.26458333,-187.83014,-140.77037)" />
      <path
         style="opacity:0.99;fill:#000000;fill-opacity:1;stroke:none;stroke-width:0.377953;stroke-dasharray:none"
         d="m 1141.75,892.12502 c 0.2168,-0.62334 4.2626,0.60116 9.6542,1.1964 0,0 0,0 0,0 1.377,0.15622 2.8463,0.16913 4.3952,0.008 0.2081,-0.0216 0.4149,-0.0461 0.6203,-0.0733 0.8042,-0.0827 1.7754,-0.51205 2.7756,-0.86594 l 0,0 c 1.5483,-0.57092 2.9889,-1.14203 4.2797,-1.62733 l 0,0 c 1.5982,-0.601 2.9323,-1.06934 3.9472,-1.35389 l 0,0 c 0.5513,-0.15456 1.0002,-0.25239 1.3293,-0.28474 l 0,0 0,0 c 0.1699,-0.0166 0.3081,-0.0158 0.4121,0.004 l 0,0 c 0,0 0,0 0,0 0.083,0.0685 0.135,0.0995 0.167,0.11318 0.031,0.0133 0.043,0.01 0.044,0.009 0,0 0,0 0,0 0,0 0,0 0,0 0,0 0,0 0,0 0,0 0,0 0,0 0,0 0,0 0,0 0,0 0,0 0,0 0,0 0,0 0,0 10e-5,-4e-5 10e-5,-3e-5 10e-5,-3e-5 0,0 0,-10e-6 -10e-5,4e-5 0,0 0,0 0,0 0,0 0,0 0,0 0,0 0,0 0,0 0,0 0,0 0,0 0,0 0,0 0,0 0,0 0,0 0,0 0,0 0,0 0,0 -0,8e-4 -0.011,0.008 -0.019,0.0411 -0.01,0.0339 -0.014,0.0944 -0.01,0.2015 0,0 0,0 0,0 l 0,0 c -0.046,0.0955 -0.1284,0.20737 -0.2443,0.33434 l 0,0 0,0 c -0.2239,0.24561 -0.5739,0.54691 -1.0357,0.89233 l 0,0 c -0.8389,0.62768 -2.0629,1.41248 -3.5645,2.25396 l 0,0 c -1.201,0.67345 -2.6477,1.42451 -4.2218,2.11242 l 0,0 c -0.9033,0.41392 -2.0608,0.93844 -3.4522,1.15809 -0.2379,0.0337 -0.4779,0.0632 -0.7198,0.0882 -1.8009,0.18598 -3.5314,0.10484 -5.1333,-0.18995 0,0 0,0 0,0 -5.8931,-1.11327 -9.444,-3.39373 -9.2272,-4.01707 z"
         id="path263600-0-8-6"
         inkscape:path-effect="#path-effect263601-0-0-0"
         inkscape:original-d="m 1141.75,892.12502 c 8.625,3 11.5919,3.07629 14.875,2.625 2.6727,-0.3674 12.75,-5.5 12.75,-5.5"
         sodipodi:nodetypes="csc"
         transform="matrix(0.26458333,0,0,0.26458333,-186.56882,-142.22563)" />
      <path
         style="opacity:0.99;fill:#000000;fill-opacity:1;stroke:none;stroke-width:0.377953;stroke-dasharray:none"
         d="m 1750.2661,851.00303 c 0.018,0.83301 -12.7178,1.78626 -28.4283,2.1278 -15.7105,0.34153 -28.4757,-0.0573 -28.4938,-0.89036 -0.018,-0.83301 12.7177,-1.78626 28.4282,-2.1278 15.7105,-0.34153 28.4758,0.0574 28.4939,0.89036 z"
         id="path263601-4-9-3"
         inkscape:path-effect="#path-effect263602-8-26-6"
         inkscape:original-d="m 1750.2661,851.00303 -56.9221,1.23744"
         transform="matrix(0.26458333,0,0,0.26458333,-337.38131,-135.87563)" />
      <path
         style="opacity:0.99;fill:#000000;fill-opacity:1;stroke:none;stroke-width:0.377953;stroke-dasharray:none"
         d="m 2327.7501,-225.75001 c 0.1883,-0.005 0.731,14.40788 1.5098,39.21811 0,0.024 1.984,18.87728 1.9865,18.90123 0.5891,5.1568 1.2664,10.75468 2.0586,16.46293 0.6534,4.7073 1.3979,9.77875 2.4099,14.77537 1.6807,8.29019 3.7851,17.46002 7.2808,26.09283 3.4563,8.54234 7.9381,17.184438 13.7081,25.30119 4.2246,5.95776 9.5092,10.764008 14.9403,16.376077 9.1931,9.487491 19.4413,18.860954 30.8636,27.087917 5.3851,3.887044 11.596,6.626914 18.0912,8.93463 2.728,0.966345 5.505,1.834214 8.3257,2.561392 0,0 0,5e-6 0,5e-6 1.823,0.46669 3.6252,0.925162 5.4187,1.099563 0.4471,0.04361 0.8945,0.08668 1.3415,0.127897 3.448,0.317936 6.8354,0.521502 10.1229,0.05905 2.6413,-0.35703 5.2522,-1.286544 7.9014,-2.142746 7.6843,-2.485972 14.5557,-7.061443 20.7027,-12.074293 11.0891,-9.049447 20.0222,-20.855455 28.1322,-31.563806 3.8741,-5.117522 7.2901,-10.690991 10.5383,-15.972504 1.4419,-2.345461 2.8519,-4.680619 4.2303,-6.998347 0.4227,-0.710907 0.8421,-1.419526 1.2582,-2.127401 0,0 0,-1.4e-5 0,-1.4e-5 0.1139,-0.193746 0.2274,-0.387201 0.3405,-0.580571 -0,0.008 0.082,-0.13887 0.077,-0.1312 0,0 0,-1e-5 10e-5,-1e-5 -0,0.002 0.023,-0.0395 0.022,-0.0373 -0,0.002 0.01,-0.0158 0.01,-0.0134 0,-0.003 0.011,-0.0223 0.013,-0.0248 0,-0.003 0.033,-0.0646 0.034,-0.0674 0.043,-0.0849 0.086,-0.16993 0.129,-0.25505 0.1651,-0.3265 0.3288,-0.65364 0.4913,-0.98093 0,-1e-5 0,-1e-5 0,-2e-5 0.5397,-1.08674 1.0654,-2.17242 1.5762,-3.25836 1.2298,-2.61987 2.4116,-5.1312 3.223,-7.7554 7.3942,-23.8121 10.9374,-54.69804 13.2315,-70.33986 0,0 0,-1e-5 0,-1e-5 0.806,-5.49674 1.3576,-11.37875 1.7927,-15.86847 -0,0.0277 0.8848,-9.59408 0.8823,-9.56641 -0.212,-11.90573 -0.2686,-18.48649 -0.1414,-18.48993 0.1272,-0.003 0.4262,6.57168 0.8586,18.51019 -0,0.0212 -0.7249,9.60065 -0.7264,9.62183 -0.371,4.51512 -0.8455,10.37836 -1.5986,15.94323 0,0 0,1e-5 0,1e-5 -2.1323,15.76493 -5.3959,46.46664 -12.7685,70.66014 -0.8469,2.76667 -2.0448,5.35637 -3.2676,7.97956 -0.5114,1.09933 -1.0374,2.19781 -1.5774,3.29673 0,0 0,2e-5 0,2e-5 -0.1626,0.331 -0.3268,0.66243 -0.4926,0.993852 -0.048,0.09487 -0.096,0.18982 -0.1436,0.284791 0,-0.0042 -0.04,0.07961 -0.038,0.07545 0,-0.0066 -0.017,0.0342 -0.014,0.02762 -0,0.0019 -0.01,0.01346 -0.01,0.0152 -0,0.0019 -0.023,0.04007 -0.024,0.04196 0,2e-6 0,4e-6 0,6e-6 -0,0.0074 -0.096,0.167148 -0.1004,0.174597 -0.113,0.195143 -0.2264,0.39011 -0.3399,0.5851 0,5e-6 0,10e-6 0,1.5e-5 -0.4149,0.712429 -0.8329,1.425208 -1.254,2.139842 -1.373,2.329864 -2.7785,4.677515 -4.2166,7.035948 -3.2272,5.294938 -6.6541,10.922471 -10.5817,16.146611 -8.0737,10.744253 -17.0705,22.664361 -28.3678,31.936194 -6.2294,5.11619 -13.2945,9.808712 -21.2973,12.425709 -2.6155,0.856369 -5.3328,1.811808 -8.2248,2.220952 -3.5331,0.481981 -7.0661,0.283533 -10.5566,-0.04427 -0.4526,-0.0425 -0.9037,-0.08709 -1.3528,-0.132483 -1.979,-0.200225 -3.8756,-0.675762 -5.7034,-1.150845 0,0 0,-5e-6 0,-5e-6 -2.8819,-0.743929 -5.7115,-1.628991 -8.4839,-2.612947 -6.5866,-2.330748 -12.9541,-5.159929 -18.5537,-9.195612 -11.5284,-8.326305 -21.8388,-17.788769 -31.0598,-27.357086 -5.3717,-5.567222 -10.7048,-10.466259 -15.0597,-16.623923 -5.8313,-8.265834 -10.3379,-17.039956 -13.7919,-25.698786 -3.5124,-8.8118 -5.5889,-18.07414 -7.2192,-26.40719 -0.9902,-5.05606 -1.7038,-10.15717 -2.323,-14.87888 -0.7524,-5.73504 -1.3845,-11.34421 -1.928,-16.5172 0,0.0281 -1.7966,-18.99243 -1.794,-18.96437 -0.4865,-24.85408 -0.6785,-39.27713 -0.4902,-39.28193 z"
         id="path263604-4"
         inkscape:path-effect="#path-effect263605-5"
         inkscape:original-d="m 2327.7501,-225.75001 1,39.25001 c 0,0 2.9528,33.69611 6.25,50.25 1.7732,8.90272 3.8661,17.8267 7.25,26.25 3.5999,8.9609 8.1691,17.618974 13.75,25.499998 4.2957,6.066081 9.8348,11.154816 15,16.5 9.2139,9.535015 20.0634,19.362065 30.9617,27.222501 10.5478,7.607601 27.5493,12.30689 32.2883,12.7775 11.1242,1.104698 13.4575,0.0469 19.75,-2 7.7064,-2.506862 14.7286,-7.117407 21,-12.25 10.9628,-8.972098 19.7185,-20.440957 28.25,-31.750001 6.1818,-8.194329 16.5,-25.999998 16.5,-25.999998 0,0 4.1616,-8.14904 5.5,-12.5 7.0259,-22.83997 9.6646,-46.83774 13,-70.5 1.1921,-8.45714 2.5,-25.5 2.5,-25.5 l -0.5,-18.50001"
         sodipodi:nodetypes="ccssssssssscsscc"
         transform="matrix(0.26458333,0,0,0.26458333,-525.54533,115.62291)" />
      <path
         style="opacity:0.99;fill:#000000;fill-opacity:1;stroke:none;stroke-width:0.377953;stroke-dasharray:none"
         d="m 2504.7501,-76.375002 c 0.5206,-0.01247 1.3081,16.72844 1.7577,37.368102 0.2074,9.518601 0.3179,18.361385 0.3391,24.996299 5.3104,5.2833987 8.598,8.8102424 8.4032,9.0106042 -0.1948,0.2003618 -3.8625,-3.0348961 -9.5968,-8.4894022 -0.2952,-6.577042 -0.6092,-15.456106 -0.8604,-25.079905 -0.5442,-20.856276 -0.5634,-37.793228 -0.043,-37.805698 z"
         id="path263605-9"
         inkscape:path-effect="#path-effect263606-0"
         inkscape:original-d="m 2504.7501,-76.375002 1.5,62.625002 9,8.7499999"
         transform="matrix(0.26458333,0,0,0.26458333,-525.54533,115.62291)" />
      <path
         style="opacity:0.99;fill:#000000;fill-opacity:1;stroke:none;stroke-width:0.377953;stroke-dasharray:none"
         d="m 2361.0001,-78.750002 c 0.5206,0.01201 0.474,18.450425 -0.104,41.157168 -0.2294,9.011296 -0.5035,17.435286 -0.7657,24.140338 -7.9485,6.7687573 -13.1757,10.9396874 -13.3803,10.7025089 -0.2046,-0.2371785 4.615,-4.7341182 12.1197,-11.2975169 0.048,-6.734863 0.1616,-15.112397 0.3458,-24.024809 0.4644,-22.466099 1.2639,-40.689703 1.7845,-40.677689 z"
         id="path263606-1"
         inkscape:path-effect="#path-effect263607-7"
         inkscape:original-d="m 2361.0001,-78.750002 -1.5,65.000002 -12.75,10.9999999"
         transform="matrix(0.26458333,0,0,0.26458333,-525.54533,115.62291)" />
      <path
         style="opacity:0.99;fill:#000000;fill-opacity:1;stroke:none;stroke-width:0.377953;stroke-dasharray:none"
         d="m 2328.7679,-186.01327 c -0.034,0.1093 -0.5045,-0.0101 -1.2069,-0.56214 -0.4344,-0.33234 -0.8597,-0.71861 -1.4368,-1.28077 -0.5691,-0.55337 -1.8717,-1.944 -2.8031,-2.6907 -0.7203,-0.58037 -1.5621,-1.1224 -2.5371,-1.60651 -0.9992,-0.45983 -2.2179,-1.00417 -3.1715,-0.68643 -0.4242,0.0833 -0.7915,0.50279 -1.0591,1.00618 -0.4297,0.84919 -0.6053,1.83245 -0.8377,2.97083 0,0 0,1e-5 0,1e-5 -1.0293,5.2039 -0.7451,9.76244 -0.7982,16.41323 0.1051,4.0743 0.2047,8.3597 0.2956,12.78208 0,10e-6 0,0.11162 0,0.11163 0.03,2.76478 0.054,5.4756 0.074,8.11456 0.1402,2.55235 0.4012,5.0295 0.749,7.41038 v 0 c 0.2761,1.80067 0.2794,3.33598 0.8712,4.65205 v 0 c 0.6439,1.57036 2.0903,3.02964 3.2138,4.4626 l 0,0 c 1.6531,2.08316 3.0753,3.80812 4.6898,5.37123 v 0 c 2.0695,1.98932 3.4031,3.37529 5.288,4.36435 0.4958,0.27019 1.1054,0.43171 1.6517,0.57638 l 0,0 c 0.2691,0.0698 0.5284,0.13068 0.7819,0.18279 l 0,0 0,0 0,0 c 0.163,0.0295 0.281,0.0649 0.3649,0.0674 l 0,0 c 0.038,0.006 0.1145,-0.007 0.221,-0.0143 v 0 c 0.1926,-0.0156 0.3904,-0.0333 0.5735,-0.0496 l 0,0 c 0.6368,-0.0566 1.152,-0.10235 1.6549,-0.14254 l 0,0 c 0.6863,-0.0549 1.23,-0.0898 1.6274,-0.10274 l 0,0 c 0.2332,-0.008 0.4144,-0.007 0.5415,6e-4 l 0,0 c 0,0 0,0 0,0 0.068,0.004 0.1203,0.0109 0.1569,0.0199 l 0,0 c 0,0 0,0 0,0 0.041,0.0367 0.061,0.0375 0.064,0.0373 2e-4,-1e-5 2e-4,0 2e-4,0 0,0 0,0 -2e-4,5e-5 -0,6.6e-4 -0.022,0.007 -0.051,0.0538 0,0 0,0 0,0 l 0,0 c -0.033,0.0189 -0.081,0.04 -0.1451,0.0631 0,0 0,0 0,0 l 0,0 c -0.1197,0.0434 -0.2937,0.0943 -0.5198,0.15206 l 0,0 c -0.3831,0.098 -0.9199,0.21697 -1.5932,0.35255 l 0,0 c -0.4685,0.0943 -1.0301,0.20239 -1.6359,0.31097 l 0,0 c -0.1829,0.0328 -0.3782,0.0673 -0.5756,0.0997 -0.069,0.0142 -0.175,0.0364 -0.3187,0.0422 l 0,0 c -0.2053,0.002 -0.3711,-0.0254 -0.5047,-0.0449 l 0,0 0,0 0,0 c -0.2737,-0.035 -0.553,-0.0795 -0.8407,-0.13326 l 0,0 c -0.5678,-0.10245 -1.2495,-0.24273 -1.9107,-0.54207 -2.0945,-0.97112 -3.6672,-2.40035 -5.7604,-4.29771 l 0,0 c -1.7398,-1.56892 -3.2794,-3.31573 -4.9888,-5.36795 l 0,0 c -1.0995,-1.30112 -2.6439,-2.8287 -3.5478,-4.77398 -0.7432,-1.71665 -0.8223,-3.41626 -1.0734,-5.07067 -0.388,-2.44058 -0.6805,-4.98644 -0.842,-7.61564 -0.038,-2.64973 -0.072,-5.37222 -0.1021,-8.14884 0,-2.4e-4 -0,-0.11208 -0,-0.11207 -0.091,-4.42976 -0.1677,-8.72264 -0.2302,-12.80368 0.1049,-6.54253 -0.057,-11.37098 1.1464,-16.73239 0,0 0,0 0,0 0.2464,-1.12685 0.5069,-2.24013 1.0669,-3.30313 0.3951,-0.77703 1.0939,-1.40594 1.9861,-1.64707 1.588,-0.30774 3.0237,0.35015 4.0281,0.94814 1.0223,0.57022 1.8992,1.20966 2.6377,1.88544 1.0306,0.94718 2.1088,2.32463 2.6549,2.9772 0.5434,0.6473 0.8421,0.9994 1.2341,1.41646 0.5946,0.61152 0.9391,0.81266 0.9172,0.88385 z"
         id="path263607-4"
         inkscape:path-effect="#path-effect263608-84"
         inkscape:original-d="m 2328.7679,-186.01327 c -1.149,-0.35356 -3.5356,-3.53554 -5.1265,-4.90556 -0.8176,-0.70405 -4.0197,-3.09747 -6.1872,-2.56326 -1.3406,0.3304 -1.8948,1.7194 -2.4749,4.46361 -1.0239,4.84372 -0.9009,10.61585 -0.9723,16.57281 -0.052,4.30217 0.2652,12.9047 0.2652,12.9047 0,0 -0.07,5.42558 0.088,8.13173 0.1464,2.51408 0.4156,5.0235 0.7955,7.51301 0.2493,1.63363 0.3065,3.34886 0.9723,4.86136 0.7686,1.74615 2.1772,3.13806 3.3808,4.61829 1.5201,1.86946 3.0781,3.72523 4.8393,5.36959 1.7103,1.59683 3.425,3.29746 5.5242,4.33103 0.9344,0.46006 2.8064,0.7734 3.0273,0.7734 0.221,0 4.8393,-0.66291 4.8393,-0.66291"
         sodipodi:nodetypes="csssscsssssssc"
         transform="matrix(0.26458333,0,0,0.26458333,-525.54533,115.62291)" />
      <path
         style="opacity:0.99;fill:#000000;fill-opacity:1;stroke:none;stroke-width:0.377953;stroke-dasharray:none"
         d="m 2327.2679,-187.13827 c -0.029,0.0958 -0.948,-0.22364 -1.8749,-1.33331 -0.444,-0.50512 -1.2602,-1.51459 -2.0328,-2.12067 -0.7097,-0.56393 -1.5534,-1.10769 -2.5554,-1.60039 0,0 0,-10e-6 0,-10e-6 -0.9798,-0.44906 -2.2253,-1.00332 -3.2002,-0.67935 -0.4337,0.0891 -0.8066,0.5124 -1.0766,1.02521 -0.429,0.85317 -0.6026,1.83225 -0.8347,2.97925 -1.0199,5.20009 -0.7327,9.66283 -0.7823,16.418 0.1083,4.09527 0.2108,8.42006 0.3043,12.89368 0,-2.6e-4 0.01,0.80852 0.01,0.80801 0.027,2.48399 0.049,4.92402 0.068,7.30646 0.1408,2.55126 0.4022,5.02814 0.7506,7.40985 l 0,0 c 0.2764,1.80016 0.2799,3.33593 0.8715,4.65072 l 0,0 c 0.6435,1.56916 2.0892,3.02715 3.2136,4.4612 l 0,0 0,0 0,0 c 1.6525,2.08224 3.0747,3.80741 4.6892,5.3707 v 0 c 2.0688,1.98871 3.4021,3.37502 5.2864,4.36419 l 0,0 c 0.4951,0.27002 1.1043,0.43159 1.6506,0.57644 l 0,0 c 0.269,0.0698 0.5282,0.1308 0.7816,0.18298 l 0,0 0,0 0,0 c 0.1631,0.0295 0.281,0.065 0.3643,0.0675 l 0,0 c 0.037,0.006 0.1138,-0.007 0.2205,-0.0142 l 0,0 c 0.1926,-0.0155 0.3905,-0.0331 0.5736,-0.0493 l 0,0 c 0.6364,-0.0563 1.1523,-0.10192 1.6549,-0.14183 l 0,0 c 0.6863,-0.0545 1.2301,-0.0891 1.6276,-0.10161 l 0,0 c 0.2332,-0.007 0.4145,-0.007 0.5416,0.001 l 0,0 c 0,0 0,0 0,0 0.068,0.004 0.1203,0.0112 0.157,0.0203 l 0,0 c 0,0 0,0 0,0 0.041,0.0371 0.061,0.0379 0.064,0.0378 3e-4,-1e-5 2e-4,0 2e-4,0 0,0 1e-4,-1e-5 -2e-4,5e-5 -0,6.8e-4 -0.022,0.007 -0.051,0.0542 0,0 0,0 0,0 l 0,0 c -0.033,0.019 -0.081,0.0402 -0.145,0.0635 0,0 0,0 0,0 l 0,0 c -0.1198,0.0436 -0.2938,0.0947 -0.5198,0.15277 l 0,0 c -0.3831,0.0984 -0.9198,0.21777 -1.593,0.35369 l 0,0 c -0.4686,0.0946 -1.0301,0.20288 -1.6359,0.31169 l 0,0 c -0.1828,0.0328 -0.3781,0.0674 -0.5756,0.0999 l 0,0 c -0.069,0.0142 -0.1749,0.0365 -0.3191,0.0423 l 0,0 c -0.2058,0.003 -0.3719,-0.0253 -0.5053,-0.0448 l 0,0 0,0 0,0 c -0.2738,-0.035 -0.5533,-0.0794 -0.8409,-0.13309 l 0,0 c -0.5681,-0.1023 -1.25,-0.24252 -1.9119,-0.542 l 0,0 c -2.0957,-0.97133 -3.6698,-2.40145 -5.762,-4.29787 l 0,0 c -1.7406,-1.56943 -3.2807,-3.31695 -4.9894,-5.36847 l 0,0 0,-1e-5 0,0 c -1.0998,-1.30159 -2.6437,-2.82895 -3.548,-4.77538 l 0,0 c -0.7434,-1.71795 -0.8225,-3.41867 -1.0731,-5.072 l 0,0 c -0.3877,-2.44186 -0.6796,-4.98785 -0.8404,-7.61617 -0.033,-2.39223 -0.064,-4.84279 -0.091,-7.33764 0,-5.2e-4 -0.01,-0.81078 -0.01,-0.81129 -0.09,-4.4814 -0.1659,-8.81375 -0.2261,-12.91578 0.1107,-6.63763 -0.044,-11.39222 1.1623,-16.72762 0.2502,-1.13466 0.5116,-2.2404 1.0699,-3.29472 0.3962,-0.7746 1.0916,-1.39414 1.9686,-1.62804 1.5868,-0.30635 3.0206,0.37021 3.9995,0.95521 0,0 0,0 0,0 1.0402,0.5854 1.9074,1.23145 2.6193,1.89156 0.8483,0.79212 1.5384,1.85026 1.9252,2.42223 0.8737,1.21946 1.4496,1.58913 1.4201,1.68491 z"
         id="path263607-9-3"
         inkscape:path-effect="#path-effect263608-8-6"
         inkscape:original-d="m 2327.2679,-187.13827 c -1.149,-0.35356 -2.0356,-2.41054 -3.6265,-3.78056 -0.8176,-0.70405 -4.0197,-3.09747 -6.1872,-2.56326 -1.3406,0.3304 -1.8948,1.7194 -2.4749,4.46361 -1.0239,4.84372 -0.9009,10.61585 -0.9723,16.57281 -0.052,4.30217 0.2652,12.9047 0.2652,12.9047 0,0 -0.07,5.42558 0.088,8.13173 0.1464,2.51408 0.4156,5.0235 0.7955,7.51301 0.2493,1.63363 0.3065,3.34886 0.9723,4.86136 0.7686,1.74615 2.1772,3.13806 3.3808,4.61829 1.5201,1.86946 3.0781,3.72523 4.8393,5.36959 1.7103,1.59683 3.425,3.29746 5.5242,4.33103 0.9344,0.46006 2.8064,0.7734 3.0273,0.7734 0.221,0 4.8393,-0.66291 4.8393,-0.66291"
         sodipodi:nodetypes="csssscsssssssc"
         transform="matrix(-0.26458333,0,0,0.26458333,761.91422,115.08125)" />
    </g>
    <g
       id="clothes">
      <path
         id="hat"
         style="fill:#000000;stroke-width:0.264583"
         d="m 117.20049,13.760468 c -7.74996,0.0904 -15.11165,3.039684 -20.373945,8.473384 -6.281896,6.486265 -7.861935,11.85006 -7.898236,26.812832 l 0.1143,7.111711 c -0.01164,0.35777 0.353642,0.553858 0.432832,0.564875 l 0.883338,-0.187261 c 2.013559,-1.187329 1.1929,-2.500958 7.414577,-6.517288 1.236928,-0.798452 3.141924,-2.127007 4.233334,-2.952274 6.3341,-4.789442 11.18952,-7.162252 16.04449,-7.204212 0.32367,-0.0028 0.64744,0.0048 0.97153,0.02273 4.03325,0.222689 8.134,2.045666 13.14648,5.419307 8.28315,5.574943 9.61578,6.565493 10.49287,8.423939 0.0327,0.06931 1.12189,1.919893 1.68574,2.13768 2.03211,0.823378 2.18792,0.928486 2.52161,0.801426 0.40905,-0.746739 0.15859,-1.792687 0.19312,-2.463697 -0.008,-1.240944 0.0101,-2.987085 0.0214,-5.656858 0.0784,-18.772566 -5.68293,-28.580486 -19.23481,-33.102665 -3.5225,-1.175435 -7.12573,-1.724705 -10.64845,-1.683618 z m 10.9156,40.842984 c -0.0465,0.01812 -0.0695,0.03868 -0.10385,0.05684 0.073,-0.0019 0.14886,-0.0031 0.18344,-0.01913 0.0281,-0.01288 -0.0621,0.0016 -0.093,0.0021 -0.0493,7.94e-4 -0.0511,0.0088 -0.0228,-0.0155 0.0119,-0.0081 0.0497,-0.02952 0.0362,-0.02429 z"
         sodipodi:nodetypes="scccccssssssccccsssscsscss"
         transform="matrix(1.0602028,0,0,1.0602028,-58.700993,-13.902243)" />
      <path
         id="t-shirt"
         style="fill:#1a1a1a;stroke-width:0.280512"
         d="m 40.62071,105.83793 c -1.617901,-0.2731 -4.399811,1.71728 -4.399811,1.71728 -5.622554,2.93059 -9.513844,4.69699 -14.226671,6.45943 -10.321747,3.86008 -12.3002067,4.91022 -15.9146673,8.35999 -1.1836709,1.12975 -3.2888552,4.71781 -2.9076168,6.39845 0.3866803,1.21351 1.1559635,3.52345 1.1559635,3.52345 l 61.1604906,0.0965 59.243142,-0.0997 c 0,0 3.77396,-1.75703 4.13444,-3.93491 0.31172,-1.88329 -0.68046,-4.58925 -2.01447,-5.95465 -4.53587,-3.88949 -11.2423,-5.90327 -16.63186,-8.0462 -7.89669,-3.175 -10.254647,-4.27688 -14.74825,-6.88899 -4.356214,-2.53223 -4.074688,-2.56093 -6.873104,0.71116 -12.403228,14.50238 -31.430359,14.69602 -44.848483,0.45692 0,0 -1.612915,-2.54284 -3.129103,-2.79877 z"
         sodipodi:nodetypes="sccsscccssssccss" />
    </g>
    <path
       id="reflection_hat"
       clip-path="url(#clipPath263470-6-7-6-5-4)"
       style="fill:#b3b3b3;opacity:0.8"
       d="m 1168.0889,1269.0706 c -0.2089,0.1981 0.3737,2.0052 1.7618,5.541 6.165,15.7023 9.0354,37.7821 8.291,63.7871 -0.3139,10.9676 -0.9249,11.155 -9.3887,2.8848 -27.6841,-27.0509 -46.9752,-37.7294 -80.2402,-44.416 -32.7733,-6.5877 -75.1189,11.7859 -109.42777,47.4765 -9.10819,9.4754 -9.25613,9.3646 -10.26562,-7.6777 -1.32509,-22.3695 -1.50569,-22.1024 -1.67969,2.4824 -0.0925,13.0625 0.0522,23.75 0.32031,23.75 0.2681,0 1.60224,-1.7681 2.9668,-3.9297 6.62903,-10.5012 40.84417,-38.6336 56.04497,-46.082 23.7105,-11.6184 48.7818,-14.6454 72.6367,-9.3613 0.3363,0.074 0.7916,0.1598 1.08,0.2402 14.9849,3.4827 29.4744,10.2486 42.8204,20.2598 9.8727,7.4057 32.5074,26.9914 34.7695,30.0859 10.5263,14.3998 2.1884,-68.0694 -8.4609,-83.6855 -0.6915,-1.0137 -1.1032,-1.4744 -1.2286,-1.3555 z m -91.6679,35.8047 c -1.2304,0.01 -2.4627,0.054 -3.6953,0.1367 -6.2624,0.4189 -12.3516,1.7541 -18.0547,3.4297 -10.3791,3.0573 -19.8336,8.6244 -27.8887,13.4492 -11.0509,6.6037 -21.4528,14.8461 -29.08008,20.9473 -6.2818,5.0225 -12.0273,10.4563 -15.9668,14.2812 -7.57281,7.3494 -11.52491,12.0078 -11.25195,12.2656 0.27296,0.2578 4.66872,-3.8437 12.64453,-10.7461 4.04796,-3.501 10.16743,-8.8049 16.38672,-13.457 7.74568,-5.7945 18.37978,-13.8291 29.16988,-20.0527 8.1127,-4.6701 17.3712,-10.0331 27.1114,-12.8008 5.5352,-1.5781 11.3468,-2.8495 17.2031,-3.2461 2.3067,-0.1562 4.5939,-0.1753 6.8594,-0.033 8.9234,0.502 17.6479,3.7227 25.5547,7.0195 8.4887,3.5554 16.2044,8.1061 22.9746,12.7149 7.5147,5.1204 12.6603,8.2847 18.6679,12.9179 3.1323,2.4134 6.231,4.6727 9.3633,7.086 1.8954,1.4606 3.5629,2.7741 5.1719,4.1191 1.4115,1.1855 2.5747,2.1632 3.5976,3.3086 0.7803,0.8611 1.485,1.9574 2.1016,2.8809 0.9573,1.4395 1.9146,2.9662 2.6094,4.0703 2.0436,3.3449 3.2486,5.1178 3.4551,5.0332 0,0 0,0 0,0 v 0 c 0.185,-0.1241 -0.6427,-2.0979 -2.3418,-5.6465 -0.6042,-1.2203 -1.3904,-2.7555 -2.2832,-4.3398 -0.5394,-0.9641 -1.2043,-2.1585 -2.0586,-3.2442 -1.0629,-1.3378 -2.2576,-2.4782 -3.6133,-3.7305 -1.567,-1.4528 -3.2125,-2.878 -5.0527,-4.4238 -2.7815,-2.3366 -5.8737,-4.7719 -9.1055,-7.4316 -5.8985,-4.8468 -11.2563,-8.3639 -18.4941,-13.502 -6.8241,-4.8456 -14.6871,-9.6339 -23.4609,-13.4219 -7.9956,-3.4677 -17.1166,-6.8481 -26.8438,-7.4843 -1.2275,-0.073 -2.4551,-0.1034 -3.6855,-0.096 z m -109.93167,70.541 c -0.38809,0.1971 -0.7256,0.4195 -1.00586,0.6855 0.33178,-0.2338 0.67583,-0.4491 1.00586,-0.6855 z"
       transform="matrix(0.28051199,0,0,0.28051199,-235.0858,-339.59152)" />
    <path
       id="glasses"
       style="fill:#1a1a1a;stroke-width:0.280512"
       d="m 79.354738,42.803366 c -0.363046,-0.0032 -0.738145,-0.0034 -1.124791,5.48e-4 v 5.48e-4 c -0.725433,0.01416 -1.656217,0.01784 -2.176151,0.06574 -1.476979,0.386162 -2.881567,1.166156 -3.85759,2.348741 -0.856284,1.091565 -1.337435,2.299974 -1.518168,2.802928 -0.04792,0.160314 -0.315644,0.97312 -0.573623,1.782238 -0.04962,-0.04653 -0.09722,-0.0929 -0.149022,-0.139708 -0.637341,-0.606704 -1.580614,-1.228744 -2.868124,-1.331337 -0.171933,-0.0013 -0.341598,0.0078 -0.508972,0.02684 -0.942064,0.106659 -1.714984,0.511813 -2.290123,0.966999 -0.450798,0.340224 -0.835016,0.713729 -1.152726,1.061782 -0.293613,-0.939336 -0.67359,-2.086169 -0.731413,-2.279708 -0.180744,-0.502955 -0.661323,-1.711361 -1.517617,-2.802928 -0.976012,-1.182584 -2.381141,-1.962579 -3.858131,-2.34874 -0.519807,-0.04789 -1.450251,-0.05159 -2.17561,-0.06574 h -5.52e-4 c -3.092834,-0.03122 -5.44112,0.179876 -6.879666,0.373103 -1.250941,0.181533 -2.656041,0.351943 -3.899774,0.575816 -0.196106,0.03265 -0.391257,0.07035 -0.586774,0.106288 -0.688881,0.261064 -1.322941,0.580921 -1.939477,0.988366 -0.551261,0.364335 -0.808368,0.503993 -1.280384,0.773052 -0.4252,0.258533 -1.433458,0.803007 -2.331208,0.779078 -0.511121,0.02934 -1.298973,0.0636 -1.695673,0.05862 -0.40203,1.104359 -0.474803,2.188122 -0.118889,3.331628 0.132177,0.424631 1.79746,0.302426 1.90277,0.828936 0.948381,4.741893 4.227698,11.855801 8.414812,13.148999 7.490138,2.313502 13.613265,-1.697625 16.986862,-11.113096 0.07337,-0.03686 0.147813,-0.07617 0.224084,-0.118889 0.557974,-0.299128 1.158325,-0.71084 1.77073,-1.022334 0.47778,-0.225573 0.98055,-0.461702 1.38612,-0.50021 0.07443,-0.0071 0.145884,-0.008 0.214776,-0.0016 0.505419,-0.04303 1.192622,0.317304 1.807433,0.610881 0.222219,0.115208 0.431991,0.226746 0.634988,0.335299 -0.0032,0.04159 -9.6e-5,0.08327 -0.0032,0.124916 0.04835,0.109702 0.100189,0.212708 0.142449,0.33256 3.361797,9.526071 9.511758,13.591523 17.04275,11.265405 4.187101,-1.293198 7.466425,-8.407106 8.414808,-13.149 0.105278,-0.526508 1.911291,-0.301376 2.215612,-0.625673 0.436131,-0.464788 0.362281,-1.686646 0.276671,-2.310937 l -0.17313,-1.266139 -2.230944,-0.01698 c -0.897759,0.02393 -1.906001,-0.520545 -2.331206,-0.779078 -0.472013,-0.269058 -0.729122,-0.408716 -1.280386,-0.773052 -0.616539,-0.407446 -1.250594,-0.727303 -1.939482,-0.988366 -0.195512,-0.03593 -0.390663,-0.07364 -0.586769,-0.106288 -1.243734,-0.223873 -2.648832,-0.394284 -3.899776,-0.575817 -1.2588,-0.169083 -3.2141,-0.351538 -5.755427,-0.373651 z" />
  </g>
</svg>
