<svg width="500" height="500" xmlns="http://www.w3.org/2000/svg" data-name="Layer 1" stroke="null">
 <g stroke="null">
  <title stroke="null">Layer 1</title>
  <rect x="156.10589" y="607.77534" width="699.3125" height="3" fill="#e6e6e6" id="svg_35" stroke="null"/>
  <polygon points="310.67608642578125,485.8891296386719 188.28726196289062,485.8891296386719 192.43618774414062,432.8763732910156 306.5271301269531,432.8763732910156 310.67608642578125,485.8891296386719 " fill="#e6e6e6" id="svg_36" stroke="null"/>
  <rect x="180.98798" y="482.94647" width="136.90878" height="12.23401" fill="#e6e6e6" id="svg_37" stroke="null"/>
  <ellipse fill="#62b9b3" cx="401.61501" cy="441.41982" id="svg_5" rx="20.63665" ry="19.84904" stroke-width="0" opacity="0.3" stroke="#000" transform="rotate(0.7167 401.615 441.42)"/>
  <ellipse fill="#62b9b3" cx="394.60257" cy="138.41965" id="svg_11" rx="10.43655" ry="10.0382" stroke-width="0" stroke="#000"/>
  <ellipse fill="#62b9b3" cx="325.60256" cy="87.41967" id="svg_17" rx="63.70759" ry="64" stroke-width="0" opacity="0.3" stroke="#000"/>
  <path d="m483.8858,139.47724l-467.77161,0a12.44625,12.23399 0 0 0 -12.44625,12.23399l0,0l0,280.36238l492.66413,0l0,-280.36238a12.44624,12.23398 0 0 0 -12.44623,-12.23399l-0.00004,0z" fill="#3f3d56" id="svg_38" stroke="null"/>
  <rect x="26.07124" y="161.02765" width="443.91632" height="244.67991" fill="#e6e6e6" id="svg_40" stroke="null"/>
  <ellipse ry="24.89142" rx="25.32329" id="svg_26" cy="263.04244" cx="316.34956" stroke-width="0" fill="#7f7f7f" stroke="#cccccc"/>
  <ellipse ry="82.19356" rx="84.41096" id="svg_18" cy="322.41886" cx="383.87831" stroke-width="0" fill="#cccccc" stroke="#cccccc"/>
  <circle cx="441.82649" cy="171.0785" r="2.19238" fill="#fff" id="svg_43" stroke="null"/>
  <circle cx="452.58888" cy="171.0785" r="2.19238" fill="#fff" id="svg_59" stroke="null"/>
  <text transform="matrix(1.03812 0 0 1.08567 17.2171 3.34127)" fill="#000000" x="34.69667" y="189.59938" id="svg_58" stroke-width="0" font-size="28" font-family="'Oswald'" text-anchor="start" xml:space="preserve" font-weight="normal" stroke="null">Wellcom to my portfolio</text>
  <circle cx="464.51941" cy="171.90866" r="2.11473" fill="#fff" id="svg_60" stroke="null"/>
  <text transform="matrix(1.03812 0 0 1.08567 17.2171 3.34127)" fill="#000000" x="36.0945" y="221.84311" id="svg_64" font-size="28" font-family="'Oswald'" text-anchor="start" xml:space="preserve" stroke-width="0" font-weight="normal" stroke="null">Im</text>
  <text transform="matrix(1.03812 0 0 1.08567 17.2171 3.34127)" fill="#62b9b3" x="71.44761" y="221.84311" id="svg_65" stroke-width="0" font-size="32" font-family="'Oswald'" text-anchor="start" xml:space="preserve" font-weight="bold" stroke="null">Damian</text>
  <line id="svg_8" y2="328.59768" x2="183.22231" y1="320.10109" x1="45.55866" fill="none" stroke="null"/>
  <line id="svg_9" y2="331.42987" x2="99.72141" y1="331.42987" x1="98.36734" fill="none" stroke="null"/>
  <rect rx="4" id="svg_12" height="14.63301" width="185.05605" y="299.80369" x="58.64799" fill="none" stroke="#62b9b3"/>
  <rect rx="4" id="svg_14" height="14.63301" width="185.05605" y="320.57312" x="58.64799" fill="none" stroke="#62b9b3"/>
  <rect rx="4" id="svg_15" height="14.63301" width="185.05605" y="341.81459" x="58.64799" fill="none" stroke="#62b9b3"/>
  <text transform="matrix(1.05863 0 0 0.900976 16.6417 23.3501)" xml:space="preserve" text-anchor="start" font-family="'Oswald'" font-size="32" id="svg_22" y="301.60681" x="42.68285" stroke-width="0" fill="#62b9b3" stroke="null">&lt;&gt;</text>
  <text transform="matrix(0.893681 0 0 0.772042 17.4332 195.973)" xml:space="preserve" text-anchor="start" font-family="'Oswald'" font-size="32" id="svg_23" y="248.71975" x="50.05928" stroke-width="0" fill="#62b9b3" stroke="null">&lt;/&gt;</text>
  <ellipse ry="7.71681" rx="8.39657" id="svg_27" cy="390.55583" cx="440.02179" stroke-width="0" fill="#7f7f7f" stroke="#cccccc"/>
  <ellipse ry="31.93165" rx="30.53296" id="svg_28" cy="197.1032" cx="374.1215" stroke-width="0" fill="#7f7f7f" stroke="#cccccc"/>
  <rect id="svg_29" height="12.38691" width="39.01662" y="358.95715" x="56.95283" stroke-width="0" fill="#e5e5e5" stroke="null"/>
  <rect id="svg_30" height="0" width="0.69673" y="517.80109" x="506.34065" stroke-width="0" fill="#e5e5e5" stroke="null"/>
  <rect id="svg_31" height="12.38691" width="39.01662" y="385.18826" x="56.95283" stroke-width="0" fill="#e5e5e5" stroke="null"/>
  <ellipse fill="#62b9b3" cx="372.61501" cy="463.41982" id="svg_4" rx="8.5" ry="9" stroke-width="0" stroke="#000"/>
 </g>

</svg>